<svg xmlns="http://www.w3.org/2000/svg" width="1200" height="440" viewBox="0 0 1200 440"><rect width="1200" height="440" rx="24" fill="#F6F5F0"/><g transform="translate(139.5 100) scale(3)"><g transform="translate(6 6)"><rect x="18" y="8" width="28" height="6" rx="3" fill="#2D6147"/>
  <path d="M22 18h20v3c7 3 11 9 11 17v18l-10-6-11 6-11-6-10 6V38c0-8 4-14 11-17v-3Z" fill="#2D6147"/>
  <ellipse cx="25" cy="35" rx="3" ry="4" fill="#FFFEFA"/>
  <ellipse cx="39" cy="35" rx="3" ry="4" fill="#FFFEFA"/>
  <path d="M28 44c2 2 6 2 8 0" stroke="#FFFEFA" stroke-width="2.5" stroke-linecap="round"/>
  <path d="M40 8c0-6 5-8 11-7 0 6-4 10-11 7Z" fill="#B98532"/>
</g><path d="M376 -12Q277.172321205507 -12 202.96540150688372 32.87924090413024Q128.75848180826048 77.75848180826048 87.75848180826048 158.34464241101398Q46.758481808260484 238.93080301376747 46.758481808260484 346.51696361652097Q46.758481808260484 453.93080301376745 88.87924090413024 536.344642411014Q131 618.7584818082605 209.15535758898602 665.3792409041303Q287.31071517797204 712 395.0352697531906 712Q517.1736637256556 712 598.0359410132648 653.6377227123908Q678.8982183008742 595.2754454247814 702.1397364926138 491.3785696440559H567.0665119459352Q552.2388331514421 542.7910665211538 508.308701397749 572.1350376720934Q464.3785696440559 601.479008823033 394.6214303559441 601.479008823033Q323.8290213146417 601.479008823033 272.9504516705858 570.4966436996283Q222.0718820265299 539.5142785762237 195.62411539624145 482.34262863079095Q169.17634876595304 425.1709786853583 169.17634876595304 346.10312421927443Q169.17634876595304 266.6214303559441 195.83103509486472 209.98437890362771Q222.4857214237764 153.34732745131134 271.5712107664556 123.8995608210229Q320.6567001091347 94.45179419073446 386.4491091504371 94.45179419073446Q484.3785696440559 94.45179419073446 534.5502195894885 149.07121076645555Q584.7218695349212 203.69062734217664 593.5495483294142 292.27410290463274H412.655357588986V383.1044667394231H714.7258970953673V0H604.2049059184002L594.7218695349212 96.37722712390722Q571.7910665211538 61.58481808260481 541.5671832060095 37.22321205506988Q511.3432998908653 12.86160602753494 470.8609347674606 0.4308030137674699Q430.3785696440559 -12 376 -12Z" transform="translate(86.000 45) scale(0.034000 -0.034000)" fill="#263e33"/><path d="M67.51696361652097 0V720H187.520991176967V426.4491091504371Q212.10715177972048 466.89687578072557 255.12411539624145 491.4484378903628Q298.1410790127624 516 352.5549184100089 516Q413.865633587981 516 457.07255328660426 490.6377227123907Q500.27947298522747 465.2754454247814 522.4517941907345 415.4131681371722Q544.6241153962415 365.5508908495629 544.6241153962415 292.5508908495629V0H425.6200878357954V281.0678544660839Q425.6200878357954 345.8941907404282 398.37924090413026 380.25579676796315Q371.13839397246505 414.61740279549804 315.51830613666965 414.61740279549804Q279.13973649261374 414.61740279549804 250.01964865681833 396.72119827484687Q220.8995608210229 378.82499375419565 204.21027599899494 346.23950441151646Q187.520991176967 313.65401506883734 187.520991176967 267V0Z" transform="translate(111.636 45) scale(0.034000 -0.034000)" fill="#263e33"/><path d="M301.6214303559441 -12Q230.37991216420457 -12 173.13839397246505 21.32767879449301Q115.89687578072554 54.65535758898602 83.06919698623253 114.15535758898602Q50.241518191739516 173.65535758898602 50.241518191739516 251Q50.241518191739516 330.344642411014 83.36227728760927 390.0515621096372Q116.48303638347903 449.75848180826046 173.81071517797204 482.87924090413026Q231.13839397246505 516 302.3799121642046 516Q376.0352697531906 516 432.7767879449301 482.87924090413026Q489.51830613666965 449.75848180826046 522.8459849311627 390.0515621096372Q556.1736637256556 330.344642411014 556.1736637256556 252Q556.1736637256556 173.65535758898602 522.5529046297859 114.15535758898602Q488.9321455339161 54.65535758898602 431.89754704079985 21.32767879449301Q374.86294854768363 -12 301.6214303559441 -12ZM302.2075909586976 91.45179419073446Q338.172321205507 91.45179419073446 367.7232120550699 109.43415931413917Q397.27410290463274 127.41652443754387 415.51494983629794 163.38125468435328Q433.75579676796315 199.34598493116266 433.75579676796315 252Q433.75579676796315 305.24017567159086 415.8080301376747 340.9118256170235Q397.86026350738626 376.58347556245616 368.60245295920015 394.56584068586085Q339.344642411014 412.54820580926554 302.7937515614511 412.54820580926554Q267.8290213146417 412.54820580926554 237.7781304650788 394.56584068586085Q207.7272396155159 376.58347556245616 190.193312382474 340.9118256170235Q172.65938514943207 305.24017567159086 172.65938514943207 252Q172.65938514943207 199.34598493116266 190.40023208109724 163.38125468435328Q208.14107901276242 127.41652443754387 237.39888956094856 109.43415931413917Q266.6567001091347 91.45179419073446 302.2075909586976 91.45179419073446Z" transform="translate(131.628 45) scale(0.034000 -0.034000)" fill="#263e33"/><path d="M268.69062734217664 -12Q200.72455457521855 -12 151.53459849311628 10.034598493116267Q102.34464241101398 32.069196986232534 73.81004391789772 70.18995608210228Q45.275445424781445 108.31071517797204 40.51696361652096 158.06919698623253H160.86563358798097Q165.03795479348796 137.44910915043712 178.14107901276242 120.20826221877194Q191.24420323203688 102.96741528710675 213.57121076645555 92.36429106783228Q235.89821830087422 81.76116684855783 267.6214303559441 81.76116684855783Q296.41383939724653 81.76116684855783 315.68928482202796 90.19196986232531Q334.9647302468094 98.62277287609278 344.3955332605768 112.89821830087422Q353.8263362743443 127.17366372565567 353.8263362743443 143.20759095869758Q353.8263362743443 167.5861606027535 340.98169386333035 180.06852572615819Q328.13705145231637 192.55089084956288 303.24084693166515 200.6024529592001Q278.344642411014 208.65401506883734 243.31071517797204 215.24017567159083Q208.65535758898602 222.48169386333035 174.79308030137673 232.48169386333035Q140.93080301376747 242.48169386333035 114.27544542478145 258.98169386333035Q87.62008783579542 275.48169386333035 72.2924090413024 300.10245295920015Q56.964730246809395 324.7232120550699 56.964730246809395 360.9647302468094Q56.964730246809395 405.2062484385489 80.41316813717216 440.36160602753495Q103.86160602753493 475.51696361652097 148.672321205507 495.7584818082605Q193.48303638347903 516 254.69062734217664 516Q343.13973649261374 516 395.41585317746956 475.5515621096372Q447.6919698623253 435.10312421927443 457.51964865681833 362.344642411014H343.48169386333035Q337.65401506883734 390.41249687709785 315.1200878357954 406.1187453156467Q292.58616060275347 421.82499375419565 254.10446673942315 421.82499375419565Q214.96741528710675 421.82499375419565 194.6058092595718 407.17030742528397Q174.24420323203688 392.5156210963723 174.24420323203688 368.9647302468094Q174.24420323203688 353.10312421927443 186.70960473892063 340.7069196986232Q199.17500624580435 328.31071517797204 222.98505016370206 319.3799121642046Q246.79509408159976 310.4491091504371 282.07053950638124 303.86294854768363Q337.8642910678323 292.7937515614511 380.7265683554416 277.5868318628278Q423.58884564305083 262.3799121642046 449.08884564305083 233.29375156145107Q474.58884564305083 204.20759095869758 474.58884564305083 150.62143035594409Q474.58884564305083 102.37991216420458 449.4334880540648 65.93147427384181Q424.2781304650788 29.483036383479035 377.7604955884835 8.741518191739518Q331.24286071188817 -12 268.69062734217664 -12Z" transform="translate(151.598 45) scale(0.034000 -0.034000)" fill="#263e33"/><path d="M286.2089334788463 0Q235.8290213146417 0 198.06986824630687 15.862277287609277Q160.31071517797204 31.724554575218555 139.70691969862327 68.74218945181386Q119.10312421927446 105.75982432840917 119.10312421927446 169.38125468435325V403.61740279549804H31.93080301376747V504H119.10312421927446L132.5861606027535 637.1736637256556H238.69331238247398V504H375.17500624580435V403.61740279549804H239.10715177972048V168.55357588986024Q239.10715177972048 130.6580426292834 255.21027599899494 116.43415931413917Q271.3134002182694 102.21027599899494 311.0366122733393 102.21027599899494H372.8995608210229V0Z" transform="translate(168.769 45) scale(0.034000 -0.034000)" fill="#263e33"/><path d="M70.86160602753493 0V700H322.4504516705858Q407.1058092595718 700 462.4680865471811 671.4654015068837Q517.8303638347903 642.9308030137674 544.5718820265299 594.8616060275349Q571.3134002182694 546.7924090413024 571.3134002182694 484.8955332605769Q571.3134002182694 427.48169386333035 544.9857214237763 378.91249687709785Q518.6580426292834 330.3432998908653 463.7957653416741 300.481022603256Q408.9334880540648 270.6187453156467 322.4504516705858 270.6187453156467H190.86563358798097V0ZM190.86563358798097 368.51830613666965H316.89821830087425Q387.24151819173954 368.51830613666965 418.0685257261582 400.55223336971153Q448.8955332605769 432.58616060275347 448.8955332605769 484.8955332605769Q448.8955332605769 540.3772271239072 418.0685257261582 571.1180740555724Q387.24151819173954 601.8589209872375 316.89821830087425 601.8589209872375H190.86563358798097Z" transform="translate(182.482 45) scale(0.034000 -0.034000)" fill="#263e33"/><path d="M235.24151819173952 -12Q173.4138393972465 -12 132.20691969862327 8.87924090413024Q91 29.75848180826048 71.20691969862325 64.63772271239073Q51.413839397246505 99.51696361652097 51.413839397246505 141.51696361652097Q51.413839397246505 188.79240904130242 75.84464241101398 224.08548934267918Q100.27544542478144 259.3785696440559 148.36160602753495 278.7062484385489Q196.44776663028844 298.03392723304194 267 298.03392723304194H393.3785696440559Q393.3785696440559 337.9986574798513 382.18928482202796 364.53258471289325Q371 391.0665119459352 348.25915306833485 404.3765558638329Q325.51830613666965 417.6865997817306 288.6567001091347 417.6865997817306Q247.69196986232532 417.6865997817306 218.69264112239966 398.8595922473119Q189.69331238247398 380.03258471289325 182.9348305742135 342.13705145231637H65.06919698623253Q70.65535758898602 396.5508908495629 100.94843789036277 434.9131681371722Q131.24151819173952 473.2754454247814 180.72455457521855 494.6377227123907Q230.20759095869758 516 289.07053950638124 516Q360.3120576981207 516 410.5366122733393 491.7415181917395Q460.7611668485578 467.48303638347903 487.0718820265299 422.1899560821023Q513.382597204502 376.89687578072557 513.382597204502 312V0H411.06919698623255L399.03392723304194 80.30937265782337Q388.6200878357954 60.55089084956289 373.32700753441867 43.70624843854891Q358.03392723304194 26.86160602753494 337.6546863289117 14.396204520651205Q317.2754454247814 1.9308030137674694 292.0169636165209 -5.034598493116265Q266.75848180826046 -12 235.24151819173952 -12ZM261.89821830087425 82.58884564305085Q290.2767879449301 82.58884564305085 313.1899560821023 93.36429106783228Q336.10312421927443 104.13973649261374 352.3785696440559 123.6390652325394Q368.65401506883734 143.13839397246505 378.11941657572106 167.3100439178977Q387.58481808260484 191.48169386333035 389.65401506883734 218.86026350738626V220.61874531564675H279.7937515614511Q243.62277287609277 220.61874531564675 220.86496232790662 211.80870139774902Q198.10715177972048 202.99865747985132 188.00402756044605 187.0508908495629Q177.90090334117158 171.10312421927446 177.90090334117158 150.89687578072554Q177.90090334117158 129.27678794493013 188.1247866563158 114.03594101326495Q198.34866997146003 98.79509408159976 217.46875780725543 90.6919698623253Q236.58884564305086 82.58884564305085 261.89821830087425 82.58884564305085Z" transform="translate(202.418 45) scale(0.034000 -0.034000)" fill="#263e33"/><path d="M67.51696361652097 0V504H173.7272396155159L181.45179419073446 420.13839397246505Q205.03795479348796 464.24151819173954 248.08951690312517 490.12075909586974Q291.1410790127624 516 349.79643660174844 516Q411.27947298522747 516 454.27947298522747 490.6377227123907Q497.27947298522747 465.2754454247814 520.4517941907345 416.1200878357954Q543.6241153962415 366.9647302468094 543.6241153962415 293.9647302468094V0H424.03392723304194V282.48169386333035Q424.03392723304194 346.8941907404282 396.12075909586974 380.75579676796315Q368.2075909586976 414.61740279549804 312.58750312290215 414.61740279549804Q276.79509408159976 414.61740279549804 248.55424714993458 397.4281179734701Q220.3134002182694 380.2388331514422 203.91719569761818 348.153343808763Q187.520991176967 316.0678544660839 187.520991176967 269V0Z" transform="translate(221.313 45) scale(0.034000 -0.034000)" fill="#263e33"/><path d="M286.2089334788463 0Q235.8290213146417 0 198.06986824630687 15.862277287609277Q160.31071517797204 31.724554575218555 139.70691969862327 68.74218945181386Q119.10312421927446 105.75982432840917 119.10312421927446 169.38125468435325V403.61740279549804H31.93080301376747V504H119.10312421927446L132.5861606027535 637.1736637256556H238.69331238247398V504H375.17500624580435V403.61740279549804H239.10715177972048V168.55357588986024Q239.10715177972048 130.6580426292834 255.21027599899494 116.43415931413917Q271.3134002182694 102.21027599899494 311.0366122733393 102.21027599899494H372.8995608210229V0Z" transform="translate(241.270 45) scale(0.034000 -0.034000)" fill="#263e33"/><path d="M67.51696361652097 0V504H174.55491841000892L184.69331238247398 410.48303638347903Q203.34866997146003 443.24151819173954 230.05558967008326 466.62075909586974Q256.7625093687065 490 293.2279108755903 503.0Q329.693312382474 516 374.38259720450196 516V389.5129360560749H332.2089334788463Q301.8642910678323 389.5129360560749 275.34732745131134 382.0475345491912Q248.83036383479038 374.5821330423075 229.02031991689267 357.85824972716324Q209.21027599899494 341.134366412019 198.36563358798097 312.3589209872376Q187.520991176967 283.58347556245616 187.520991176967 240.96338772666073V0Z" transform="translate(254.983 45) scale(0.034000 -0.034000)" fill="#263e33"/><path d="M128.72455457521855 -220 251.31071517797204 56H221.48303638347903L20.586160602753495 504H150.90090334117158L300.8303638347904 162.03929731363664L442.6200878357954 504H569.7625093687066L255.62545791639013 -220Z" transform="translate(267.906 45) scale(0.034000 -0.034000)" fill="#263e33"/><circle cx="292.36" cy="43" r="2.5" fill="#B98532"/><path d="M30 0 288 700H377L634 0H545L332 595L118 0ZM148 180 172 248H489L513 180Z" transform="translate(87.000 66) scale(0.012000 -0.012000)" fill="#788076"/><path d="" transform="translate(95.018 66) scale(0.012000 -0.012000)" fill="#788076"/><path d="M70 0V720H154V0Z" transform="translate(98.260 66) scale(0.012000 -0.012000)" fill="#788076"/><path d="M78 0V504H162V0ZM120 611Q95 611 78.5 627.5Q62 644 62 669Q62 694 78.5 709.5Q95 725 120 725Q144 725 161.0 709.5Q178 694 178 669Q178 644 161.0 627.5Q144 611 120 611Z" transform="translate(100.986 66) scale(0.012000 -0.012000)" fill="#788076"/><path d="M268 0Q223 0 190.0 14.0Q157 28 139.5 61.5Q122 95 122 152V433H34V504H122L133 626H206V504H352V433H206V152Q206 105 225.0 88.5Q244 72 292 72H346V0Z" transform="translate(103.916 66) scale(0.012000 -0.012000)" fill="#788076"/><path d="M268 0Q223 0 190.0 14.0Q157 28 139.5 61.5Q122 95 122 152V433H34V504H122L133 626H206V504H352V433H206V152Q206 105 225.0 88.5Q244 72 292 72H346V0Z" transform="translate(108.670 66) scale(0.012000 -0.012000)" fill="#788076"/><path d="M70 0V720H154V0Z" transform="translate(113.424 66) scale(0.012000 -0.012000)" fill="#788076"/><path d="M291 -12Q220 -12 165.5 21.0Q111 54 80.0 113.5Q49 173 49 252Q49 332 79.5 391.0Q110 450 165.5 483.0Q221 516 293 516Q367 516 418.5 483.0Q470 450 497.5 396.5Q525 343 525 279Q525 269 525.0 258.0Q525 247 524 233H112V298H443Q440 367 397.5 406.0Q355 445 291 445Q248 445 211.5 425.5Q175 406 153.0 368.5Q131 331 131 275V247Q131 185 153.5 143.0Q176 101 212.5 80.0Q249 59 291 59Q344 59 378.5 82.5Q413 106 428 146H511Q499 101 469.0 65.0Q439 29 394.5 8.5Q350 -12 291 -12Z" transform="translate(116.150 66) scale(0.012000 -0.012000)" fill="#788076"/><path d="" transform="translate(123.016 66) scale(0.012000 -0.012000)" fill="#788076"/><path d="M70 0V720H154V0Z" transform="translate(126.258 66) scale(0.012000 -0.012000)" fill="#788076"/><path d="M291 -12Q220 -12 165.5 21.0Q111 54 80.0 113.5Q49 173 49 252Q49 332 79.5 391.0Q110 450 165.5 483.0Q221 516 293 516Q367 516 418.5 483.0Q470 450 497.5 396.5Q525 343 525 279Q525 269 525.0 258.0Q525 247 524 233H112V298H443Q440 367 397.5 406.0Q355 445 291 445Q248 445 211.5 425.5Q175 406 153.0 368.5Q131 331 131 275V247Q131 185 153.5 143.0Q176 101 212.5 80.0Q249 59 291 59Q344 59 378.5 82.5Q413 106 428 146H511Q499 101 469.0 65.0Q439 29 394.5 8.5Q350 -12 291 -12Z" transform="translate(128.984 66) scale(0.012000 -0.012000)" fill="#788076"/><path d="M260 -12Q197 -12 150.5 9.0Q104 30 76.5 67.5Q49 105 43 156H129Q134 130 150.0 108.0Q166 86 193.5 72.5Q221 59 261 59Q296 59 319.0 69.5Q342 80 353.5 98.0Q365 116 365 137Q365 168 350.5 184.0Q336 200 308.0 209.5Q280 219 240 226Q207 232 175.0 242.0Q143 252 118.0 268.5Q93 285 78.5 309.0Q64 333 64 368Q64 411 86.0 444.5Q108 478 149.5 497.0Q191 516 246 516Q327 516 377.0 477.0Q427 438 436 364H353Q348 402 320.5 423.5Q293 445 245 445Q198 445 173.5 426.0Q149 407 149 376Q149 356 162.5 340.5Q176 325 202.5 314.0Q229 303 268 296Q318 287 359.0 272.0Q400 257 425.5 227.5Q451 198 451 144Q451 97 427.5 62.0Q404 27 361.0 7.5Q318 -12 260 -12Z" transform="translate(135.850 66) scale(0.012000 -0.012000)" fill="#788076"/><path d="M260 -12Q197 -12 150.5 9.0Q104 30 76.5 67.5Q49 105 43 156H129Q134 130 150.0 108.0Q166 86 193.5 72.5Q221 59 261 59Q296 59 319.0 69.5Q342 80 353.5 98.0Q365 116 365 137Q365 168 350.5 184.0Q336 200 308.0 209.5Q280 219 240 226Q207 232 175.0 242.0Q143 252 118.0 268.5Q93 285 78.5 309.0Q64 333 64 368Q64 411 86.0 444.5Q108 478 149.5 497.0Q191 516 246 516Q327 516 377.0 477.0Q427 438 436 364H353Q348 402 320.5 423.5Q293 445 245 445Q198 445 173.5 426.0Q149 407 149 376Q149 356 162.5 340.5Q176 325 202.5 314.0Q229 303 268 296Q318 287 359.0 272.0Q400 257 425.5 227.5Q451 198 451 144Q451 97 427.5 62.0Q404 27 361.0 7.5Q318 -12 260 -12Z" transform="translate(141.924 66) scale(0.012000 -0.012000)" fill="#788076"/><path d="" transform="translate(147.998 66) scale(0.012000 -0.012000)" fill="#788076"/><path d="M172 0 24 504H108L223 79H208L333 504H428L555 80L539 79L653 504H738L591 0H505L373 444H390L258 0Z" transform="translate(151.240 66) scale(0.012000 -0.012000)" fill="#788076"/><path d="M234 -12Q173 -12 132.0 9.5Q91 31 71.0 66.5Q51 102 51 144Q51 195 77.5 230.5Q104 266 152.5 284.5Q201 303 267 303H400Q400 350 385.5 381.5Q371 413 343.5 429.0Q316 445 275 445Q227 445 192.0 421.0Q157 397 149 350H63Q69 404 99.5 440.5Q130 477 177.0 496.5Q224 516 275 516Q345 516 391.5 490.5Q438 465 461.0 419.5Q484 374 484 312V0H409L404 89Q394 68 378.5 49.5Q363 31 342.0 17.5Q321 4 294.5 -4.0Q268 -12 234 -12ZM247 59Q282 59 310.5 73.5Q339 88 359.0 113.5Q379 139 389.5 170.0Q400 201 400 235V238H274Q225 238 195.0 226.5Q165 215 152.0 194.5Q139 174 139 148Q139 121 151.5 101.0Q164 81 188.5 70.0Q213 59 247 59Z" transform="translate(160.446 66) scale(0.012000 -0.012000)" fill="#788076"/><path d="M260 -12Q197 -12 150.5 9.0Q104 30 76.5 67.5Q49 105 43 156H129Q134 130 150.0 108.0Q166 86 193.5 72.5Q221 59 261 59Q296 59 319.0 69.5Q342 80 353.5 98.0Q365 116 365 137Q365 168 350.5 184.0Q336 200 308.0 209.5Q280 219 240 226Q207 232 175.0 242.0Q143 252 118.0 268.5Q93 285 78.5 309.0Q64 333 64 368Q64 411 86.0 444.5Q108 478 149.5 497.0Q191 516 246 516Q327 516 377.0 477.0Q427 438 436 364H353Q348 402 320.5 423.5Q293 445 245 445Q198 445 173.5 426.0Q149 407 149 376Q149 356 162.5 340.5Q176 325 202.5 314.0Q229 303 268 296Q318 287 359.0 272.0Q400 257 425.5 227.5Q451 198 451 144Q451 97 427.5 62.0Q404 27 361.0 7.5Q318 -12 260 -12Z" transform="translate(167.024 66) scale(0.012000 -0.012000)" fill="#788076"/><path d="M268 0Q223 0 190.0 14.0Q157 28 139.5 61.5Q122 95 122 152V433H34V504H122L133 626H206V504H352V433H206V152Q206 105 225.0 88.5Q244 72 292 72H346V0Z" transform="translate(173.098 66) scale(0.012000 -0.012000)" fill="#788076"/><path d="M291 -12Q220 -12 165.5 21.0Q111 54 80.0 113.5Q49 173 49 252Q49 332 79.5 391.0Q110 450 165.5 483.0Q221 516 293 516Q367 516 418.5 483.0Q470 450 497.5 396.5Q525 343 525 279Q525 269 525.0 258.0Q525 247 524 233H112V298H443Q440 367 397.5 406.0Q355 445 291 445Q248 445 211.5 425.5Q175 406 153.0 368.5Q131 331 131 275V247Q131 185 153.5 143.0Q176 101 212.5 80.0Q249 59 291 59Q344 59 378.5 82.5Q413 106 428 146H511Q499 101 469.0 65.0Q439 29 394.5 8.5Q350 -12 291 -12Z" transform="translate(177.852 66) scale(0.012000 -0.012000)" fill="#788076"/><path d="M100 -5Q75 -5 58.5 11.5Q42 28 42 52Q42 76 58.5 92.5Q75 109 100 109Q125 109 141.0 92.5Q157 76 157 52Q157 28 141.0 11.5Q125 -5 100 -5Z" transform="translate(184.718 66) scale(0.012000 -0.012000)" fill="#788076"/></g></svg>